<svg width="517" height="400" viewBox="0 0 517 400" fill="none" xmlns="http://www.w3.org/2000/svg">
<g clip-path="url(#clip0_2_415)">
<path d="M411.887 261.968C469.444 261.968 516.103 203.324 516.103 130.984C516.103 58.6435 469.444 0 411.887 0C354.329 0 307.67 58.6435 307.67 130.984C307.67 203.324 354.329 261.968 411.887 261.968Z" fill="#1E2328"/>
<path d="M489.41 43.4969C512.037 110.019 487.472 187 434.544 215.438C393.365 237.564 345.544 224.153 315.754 182.126C338.378 248.651 399.627 279.528 452.557 251.093C505.486 222.657 530.054 145.678 507.429 79.1533C503.17 66.4626 497.101 54.4532 489.41 43.4969Z" fill="#23272C"/>
<path d="M412.173 104.217H412.459L417.613 399.688H406.734L412.173 104.217Z" fill="#1E2328"/>
<path d="M428.748 298.19L411.521 307.26L413.922 311.82L431.149 302.75L428.748 298.19Z" fill="#1E2328"/>
<path d="M80.4779 292.511C124.925 292.511 160.956 247.411 160.956 191.777C160.956 136.143 124.925 91.0426 80.4779 91.0426C36.0312 91.0426 0 136.143 0 191.777C0 247.411 36.0312 292.511 80.4779 292.511Z" fill="#1E2328"/>
<path d="M140.342 124.494C157.815 175.654 138.846 234.856 97.9744 256.727C66.1754 273.743 29.2469 263.429 6.24242 231.108C23.7133 282.269 71.0106 306.016 111.884 284.147C152.757 262.279 171.728 203.077 154.257 151.916C150.966 142.152 146.279 132.916 140.342 124.494Z" fill="#23272C"/>
<path d="M80.699 171.521H80.9198L84.8998 399.688H76.4987L80.699 171.521Z" fill="#1E2328"/>
<path d="M93.4986 324.586L80.1953 331.59L82.0493 335.112L95.3526 328.108L93.4986 324.586Z" fill="#1E2328"/>
<path d="M471.217 400H13.0671C12.9113 400 12.7619 399.938 12.6518 399.828C12.5416 399.718 12.4797 399.568 12.4797 399.413C12.4797 399.257 12.5416 399.107 12.6518 398.997C12.7619 398.887 12.9113 398.825 13.0671 398.825H471.217C471.373 398.825 471.522 398.887 471.632 398.997C471.742 399.107 471.804 399.257 471.804 399.413C471.804 399.568 471.742 399.718 471.632 399.828C471.522 399.938 471.373 400 471.217 400Z" fill="#1E2328"/>
<g filter="url(#filter0_d_2_415)">
<path d="M256.185 394.492H250.69L248.076 373.297L256.186 373.297L256.185 394.492Z" fill="#FFB8B8"/>
<path d="M257.586 399.819L239.868 399.818V399.594C239.868 398.688 240.047 397.792 240.393 396.955C240.74 396.118 241.248 395.358 241.888 394.718C242.528 394.077 243.289 393.569 244.125 393.223C244.962 392.876 245.859 392.698 246.765 392.698H246.765L257.586 392.698L257.586 399.819Z" fill="black"/>
<path d="M317.569 389.351L312.39 391.185L302.85 372.079L310.495 369.372L317.569 389.351Z" fill="#FFB8B8"/>
<path d="M320.669 393.904L303.967 399.819L303.893 399.607C303.59 398.754 303.459 397.849 303.506 396.945C303.554 396.04 303.779 395.154 304.168 394.336C304.558 393.519 305.105 392.786 305.778 392.18C306.451 391.574 307.237 391.107 308.091 390.805L308.091 390.804L318.292 387.192L320.669 393.904Z" fill="black"/>
<path d="M256.032 387.376C255.909 387.376 255.785 387.365 255.664 387.343L248.945 386.121C248.487 386.036 248.073 385.797 247.771 385.443C247.469 385.089 247.299 384.642 247.287 384.177C246.311 338.946 251.113 308.551 261.56 286.765C261.746 286.379 262.05 286.063 262.428 285.863C262.807 285.663 263.239 285.589 263.662 285.653L287.826 289.141C288.267 289.205 288.675 289.414 288.985 289.734C289.296 290.054 289.491 290.467 289.542 290.91L291.673 309.692C291.684 309.793 291.706 309.893 291.736 309.99L314.904 379.404C315.062 379.909 315.016 380.456 314.776 380.928C314.536 381.4 314.121 381.759 313.619 381.928L307.358 384.015C306.898 384.166 306.398 384.148 305.95 383.962C305.502 383.776 305.135 383.436 304.917 383.004L273.578 323.913C273.516 323.789 273.417 323.687 273.294 323.621C273.172 323.555 273.032 323.529 272.894 323.547C272.756 323.564 272.627 323.623 272.524 323.717C272.421 323.811 272.35 323.934 272.32 324.07L257.995 385.79C257.898 386.239 257.651 386.641 257.293 386.93C256.936 387.218 256.491 387.376 256.032 387.376Z" fill="black"/>
<path d="M236.935 250.132C236.99 250.374 237.025 250.62 237.042 250.868L256.296 261.975L260.976 259.281L265.965 265.812L258.143 271.387C257.512 271.837 256.751 272.071 255.975 272.052C255.199 272.033 254.451 271.763 253.841 271.282L233.987 255.619C233.091 255.951 232.115 256.002 231.19 255.765C230.264 255.529 229.432 255.016 228.805 254.296C228.178 253.575 227.785 252.68 227.678 251.731C227.572 250.781 227.757 249.822 228.209 248.98C228.661 248.139 229.359 247.455 230.209 247.019C231.06 246.584 232.023 246.417 232.97 246.542C233.917 246.668 234.804 247.078 235.512 247.719C236.22 248.361 236.716 249.202 236.935 250.132Z" fill="#FFB8B8"/>
<path d="M256.56 260.865C256.618 260.581 256.737 260.313 256.908 260.079C257.079 259.845 257.298 259.65 257.552 259.509L266.387 254.568C267.561 253.662 269.046 253.259 270.517 253.446C271.988 253.633 273.325 254.396 274.235 255.568C275.144 256.739 275.552 258.223 275.368 259.695C275.185 261.167 274.426 262.505 273.257 263.418L266.212 270.733C266.011 270.942 265.767 271.105 265.497 271.211C265.228 271.317 264.938 271.364 264.649 271.348C264.36 271.332 264.077 271.254 263.82 271.119C263.564 270.984 263.339 270.796 263.162 270.566L256.939 262.501C256.762 262.272 256.637 262.007 256.571 261.724C256.506 261.442 256.502 261.149 256.56 260.865Z" fill="#C38B25"/>
<path d="M277.136 249.025C283.216 249.025 288.144 244.097 288.144 238.017C288.144 231.937 283.216 227.008 277.136 227.008C271.056 227.008 266.127 231.937 266.127 238.017C266.127 244.097 271.056 249.025 277.136 249.025Z" fill="#FFB8B8"/>
<path d="M287.855 291.489C287.746 291.489 287.637 291.48 287.529 291.463L263.705 287.557C263.436 287.513 263.179 287.415 262.948 287.268C262.718 287.122 262.52 286.93 262.366 286.705C262.212 286.48 262.106 286.226 262.053 285.958C262 285.691 262.002 285.415 262.058 285.148L263.217 279.684C262.624 278.799 257.793 271.103 263.677 263.874C263.564 261.305 264.458 258.795 266.169 256.876C267.879 254.957 270.271 253.782 272.836 253.6L285.148 252.664C286.731 252.544 288.321 252.806 289.782 253.428C291.244 254.051 292.535 255.015 293.546 256.239C294.557 257.464 295.259 258.914 295.594 260.467C295.928 262.02 295.884 263.63 295.466 265.163L289.822 289.921C289.72 290.366 289.469 290.763 289.112 291.048C288.755 291.333 288.312 291.489 287.855 291.489Z" fill="#C38B25"/>
<path d="M310.103 312.192C310.507 311.616 310.78 310.958 310.902 310.265C311.024 309.571 310.993 308.86 310.81 308.18C310.628 307.5 310.299 306.869 309.846 306.33C309.393 305.791 308.827 305.358 308.189 305.061L294.624 263.357L286.763 267.087L301.605 307.694C301.178 308.8 301.171 310.023 301.586 311.134C302.001 312.244 302.809 313.163 303.856 313.718C304.903 314.272 306.118 314.423 307.269 314.142C308.42 313.861 309.429 313.167 310.103 312.192Z" fill="#FFB8B8"/>
<path d="M297.625 270.3L287.187 273.453C286.89 273.543 286.577 273.568 286.269 273.526C285.962 273.484 285.667 273.376 285.405 273.209C285.143 273.043 284.92 272.822 284.751 272.562C284.583 272.302 284.472 272.008 284.426 271.702L282.842 260.947C282.392 259.425 282.565 257.787 283.321 256.392C284.077 254.997 285.355 253.958 286.875 253.504C288.395 253.05 290.034 253.216 291.431 253.968C292.829 254.719 293.872 255.994 294.331 257.513L298.953 267.313C299.086 267.594 299.156 267.9 299.159 268.21C299.163 268.52 299.099 268.827 298.973 269.111C298.847 269.394 298.661 269.647 298.428 269.853C298.196 270.058 297.922 270.211 297.625 270.3Z" fill="#C38B25"/>
<path d="M266.435 238.442C268.879 239.373 271.539 239.583 274.099 239.045C276.658 238.508 279.009 237.246 280.872 235.41C279.717 238.461 280.04 251.399 280.04 251.399C280.04 251.399 290.28 246.538 291.67 245.688C299.875 240.666 288.558 218.821 279.144 222.266C277.549 222.849 276.217 223.536 275.572 225.106C274.167 223.372 271.506 222.996 269.459 223.887C267.412 224.778 265.957 226.708 265.175 228.798C264.557 230.485 264.317 232.287 264.471 234.077C264.625 235.867 265.17 237.602 266.068 239.158L266.435 238.442Z" fill="black"/>
<path fill-rule="evenodd" clip-rule="evenodd" d="M252.104 101.969C252.103 99.9119 251.514 97.8976 250.404 96.1649C249.294 94.4323 247.712 93.0538 245.843 92.1928C243.974 91.3317 241.898 91.0241 239.86 91.3064C237.822 91.5887 235.907 92.449 234.343 93.7855C232.779 95.1221 231.63 96.8788 231.033 98.8479C230.436 100.817 230.416 102.916 230.975 104.896C231.534 106.876 232.648 108.655 234.187 110.021C235.725 111.387 237.623 112.284 239.655 112.606V105.083H236.92V101.969H239.655V99.5969C239.655 96.899 241.263 95.4075 243.722 95.4075C244.529 95.4187 245.335 95.4891 246.132 95.618V98.2679H244.774C244.542 98.2372 244.307 98.2591 244.085 98.3317C243.863 98.4043 243.661 98.5259 243.492 98.6874C243.324 98.8489 243.194 99.0463 243.112 99.2649C243.03 99.4835 242.998 99.7177 243.019 99.9502V101.97H246.005L245.528 105.083H243.019V112.607C245.552 112.206 247.858 110.914 249.524 108.964C251.189 107.014 252.104 104.534 252.104 101.969H252.104Z" fill="#C38B25"/>
<path d="M202.314 133.955L204.275 133.563C203.672 134.265 203.016 134.92 202.314 135.523C202.285 135.915 202.285 136.308 202.314 136.7C198.55 152.856 184.668 145.719 184.668 145.719C189.727 145.837 190.158 143.758 190.158 143.758C187.217 143.327 186.629 141.406 186.629 141.406C186.893 141.545 187.198 141.582 187.488 141.509C187.777 141.437 188.03 141.26 188.197 141.013C187.334 140.817 186.575 140.307 186.068 139.582C185.56 138.858 185.341 137.97 185.452 137.092C186.018 137.501 186.68 137.757 187.374 137.837C187.021 137.406 184.04 133.837 185.844 131.994C185.844 131.994 188.04 135.915 193.805 136.268L194.197 136.19C194.13 135.908 194.104 135.617 194.119 135.327C194.119 134.235 194.552 133.188 195.325 132.416C196.097 131.644 197.144 131.21 198.236 131.21C200.981 131.21 201.569 132.778 201.569 132.778L203.53 131.602C203.491 131.602 203.295 133.563 202.314 133.955Z" fill="#C38B25"/>
<path d="M250.655 160.104H242.375C240.839 160.109 239.367 160.721 238.281 161.807C237.195 162.893 236.583 164.365 236.579 165.901V174.181C236.583 175.717 237.195 177.189 238.281 178.275C239.367 179.361 240.839 179.973 242.375 179.977H250.655C252.191 179.973 253.663 179.361 254.749 178.275C255.835 177.189 256.447 175.717 256.451 174.181V165.901C256.447 164.365 255.835 162.893 254.749 161.807C253.663 160.721 252.191 160.109 250.655 160.104Z" fill="#C38B25"/>
<path d="M251.897 165.901C251.568 165.9 251.254 165.769 251.022 165.537C250.79 165.304 250.66 164.989 250.66 164.66C250.661 164.332 250.791 164.017 251.024 163.785C251.256 163.553 251.571 163.422 251.9 163.422C252.228 163.422 252.543 163.553 252.776 163.785C253.008 164.017 253.139 164.332 253.139 164.66C253.139 164.989 253.009 165.304 252.777 165.537C252.546 165.769 252.231 165.9 251.902 165.901H251.897Z" fill="#2A2F35"/>
<path d="M246.515 166.729C247.17 166.729 247.81 166.923 248.355 167.287C248.9 167.651 249.324 168.168 249.575 168.773C249.826 169.379 249.891 170.045 249.764 170.687C249.636 171.33 249.32 171.92 248.857 172.383C248.394 172.846 247.804 173.162 247.161 173.29C246.519 173.417 245.853 173.352 245.247 173.101C244.642 172.85 244.125 172.426 243.761 171.881C243.397 171.336 243.203 170.696 243.203 170.041C243.203 169.606 243.288 169.175 243.455 168.773C243.621 168.372 243.865 168.006 244.173 167.699C244.48 167.391 244.845 167.147 245.247 166.981C245.649 166.814 246.08 166.729 246.515 166.729ZM246.515 165.073C245.532 165.073 244.572 165.364 243.755 165.91C242.938 166.456 242.301 167.232 241.925 168.14C241.549 169.048 241.45 170.046 241.642 171.01C241.834 171.974 242.307 172.859 243.002 173.554C243.697 174.249 244.582 174.722 245.546 174.914C246.509 175.105 247.508 175.007 248.416 174.631C249.324 174.255 250.1 173.618 250.646 172.801C251.192 171.984 251.483 171.024 251.483 170.041C251.483 168.723 250.96 167.46 250.028 166.528C249.096 165.596 247.833 165.073 246.515 165.073V165.073Z" fill="#2A2F35"/>
<path d="M218.801 209.146C216.321 209.146 213.916 210 211.991 211.563C210.067 213.127 208.738 215.305 208.23 217.733C207.721 220.16 208.064 222.688 209.199 224.893C210.335 227.098 212.195 228.844 214.466 229.84C214.421 229.009 214.484 228.176 214.654 227.362C214.862 226.484 216.043 221.474 216.043 221.474C215.807 220.937 215.689 220.355 215.696 219.768C215.696 218.167 216.622 216.971 217.779 216.971C217.985 216.968 218.19 217.009 218.379 217.092C218.568 217.174 218.737 217.296 218.875 217.45C219.013 217.603 219.117 217.785 219.179 217.982C219.241 218.178 219.26 218.386 219.235 218.591C219.235 219.58 218.603 221.055 218.28 222.424C218.216 222.678 218.212 222.943 218.269 223.199C218.326 223.454 218.442 223.693 218.608 223.895C218.774 224.097 218.986 224.257 219.225 224.363C219.465 224.468 219.726 224.516 219.987 224.502C222.031 224.502 223.41 221.875 223.41 218.76C223.41 216.393 221.814 214.623 218.916 214.623C218.223 214.596 217.531 214.71 216.883 214.958C216.235 215.207 215.645 215.585 215.147 216.068C214.65 216.552 214.256 217.132 213.99 217.773C213.723 218.414 213.59 219.103 213.598 219.797C213.566 220.566 213.82 221.32 214.312 221.913C214.398 221.984 214.46 222.081 214.487 222.189C214.515 222.298 214.508 222.412 214.466 222.516C214.413 222.714 214.297 223.191 214.244 223.384C214.235 223.442 214.212 223.497 214.177 223.545C214.142 223.593 214.097 223.631 214.044 223.658C213.991 223.684 213.933 223.698 213.874 223.697C213.815 223.696 213.757 223.681 213.704 223.654C212.195 223.037 211.491 221.388 211.491 219.527C211.491 216.46 214.08 212.781 219.211 212.781C223.333 212.781 226.048 215.766 226.048 218.967C226.048 223.205 223.69 226.368 220.218 226.368C219.701 226.382 219.189 226.266 218.729 226.031C218.268 225.796 217.873 225.45 217.581 225.023C217.581 225.023 216.954 227.511 216.819 227.993C216.57 228.812 216.204 229.592 215.734 230.308C217.22 230.746 218.782 230.86 220.316 230.642C221.849 230.424 223.318 229.879 224.622 229.043C225.926 228.207 227.035 227.101 227.874 225.799C228.713 224.497 229.263 223.03 229.485 221.497C229.707 219.964 229.597 218.401 229.162 216.915C228.727 215.428 227.977 214.052 226.964 212.881C225.951 211.71 224.697 210.77 223.289 210.125C221.88 209.481 220.35 209.147 218.801 209.146L218.801 209.146Z" fill="#C38B25"/>
<path d="M241.337 121.289C237.504 121.289 233.756 120.152 230.568 118.022C227.381 115.893 224.896 112.865 223.429 109.323C221.962 105.782 221.578 101.884 222.326 98.1243C223.074 94.3643 224.92 90.9105 227.631 88.1997C230.342 85.4889 233.796 83.6428 237.556 82.8949C241.316 82.147 245.213 82.5309 248.755 83.9979C252.297 85.465 255.324 87.9494 257.454 91.137C259.583 94.3245 260.72 98.0721 260.72 101.906C260.714 107.045 258.67 111.972 255.037 115.605C251.403 119.239 246.476 121.283 241.337 121.289ZM241.337 83.6972C237.736 83.6972 234.215 84.7651 231.221 86.7659C228.227 88.7666 225.893 91.6104 224.515 94.9376C223.137 98.2647 222.776 101.926 223.478 105.458C224.181 108.99 225.915 112.235 228.462 114.781C231.008 117.328 234.253 119.062 237.785 119.764C241.317 120.467 244.978 120.106 248.305 118.728C251.632 117.35 254.476 115.016 256.477 112.022C258.478 109.027 259.546 105.507 259.546 101.906C259.54 97.0782 257.62 92.45 254.206 89.0364C250.793 85.6229 246.165 83.7027 241.337 83.6972Z" fill="#C38B25"/>
<path d="M194.472 158.633C190.638 158.633 186.89 157.496 183.703 155.366C180.515 153.236 178.031 150.209 176.564 146.667C175.097 143.126 174.713 139.228 175.461 135.468C176.209 131.708 178.055 128.254 180.765 125.544C183.476 122.833 186.93 120.987 190.69 120.239C194.45 119.491 198.347 119.875 201.889 121.342C205.431 122.809 208.458 125.293 210.588 128.481C212.718 131.669 213.855 135.416 213.855 139.25C213.849 144.389 211.805 149.316 208.171 152.949C204.537 156.583 199.611 158.627 194.472 158.633ZM194.472 121.041C190.87 121.041 187.35 122.109 184.355 124.11C181.361 126.111 179.027 128.954 177.649 132.282C176.271 135.609 175.91 139.27 176.613 142.802C177.315 146.334 179.05 149.579 181.596 152.125C184.143 154.672 187.387 156.406 190.919 157.108C194.451 157.811 198.112 157.45 201.44 156.072C204.767 154.694 207.611 152.36 209.611 149.366C211.612 146.371 212.68 142.851 212.68 139.25C212.675 134.422 210.754 129.794 207.341 126.38C203.927 122.967 199.299 121.047 194.472 121.041Z" fill="#C38B25"/>
<path d="M246.515 189.424C242.681 189.424 238.934 188.287 235.746 186.157C232.559 184.027 230.074 181 228.607 177.458C227.14 173.917 226.756 170.019 227.504 166.259C228.252 162.499 230.098 159.045 232.809 156.335C235.52 153.624 238.973 151.778 242.733 151.03C246.493 150.282 250.391 150.666 253.933 152.133C257.474 153.6 260.502 156.084 262.631 159.272C264.761 162.46 265.898 166.207 265.898 170.041C265.892 175.18 263.848 180.107 260.214 183.74C256.581 187.374 251.654 189.418 246.515 189.424ZM246.515 151.832C242.914 151.832 239.393 152.9 236.399 154.901C233.404 156.902 231.071 159.745 229.692 163.073C228.314 166.4 227.954 170.061 228.656 173.593C229.359 177.125 231.093 180.37 233.64 182.916C236.186 185.463 239.43 187.197 242.963 187.899C246.495 188.602 250.156 188.241 253.483 186.863C256.81 185.485 259.654 183.151 261.655 180.157C263.655 177.162 264.723 173.642 264.723 170.041C264.718 165.213 262.798 160.585 259.384 157.171C255.971 153.758 251.342 151.838 246.515 151.832Z" fill="#C38B25"/>
<path d="M218.8 239.332C214.966 239.332 211.219 238.196 208.031 236.066C204.844 233.936 202.359 230.909 200.892 227.367C199.425 223.825 199.041 219.928 199.789 216.168C200.537 212.408 202.383 208.954 205.094 206.243C207.805 203.532 211.258 201.686 215.018 200.938C218.778 200.19 222.676 200.574 226.217 202.041C229.759 203.508 232.787 205.993 234.916 209.18C237.046 212.368 238.183 216.116 238.183 219.949C238.177 225.088 236.133 230.015 232.499 233.649C228.866 237.283 223.939 239.327 218.8 239.332ZM218.8 201.741C215.199 201.741 211.678 202.809 208.684 204.809C205.689 206.81 203.356 209.654 201.977 212.981C200.599 216.308 200.239 219.969 200.941 223.501C201.644 227.034 203.378 230.278 205.924 232.825C208.471 235.371 211.715 237.105 215.248 237.808C218.78 238.51 222.441 238.15 225.768 236.772C229.095 235.393 231.939 233.06 233.94 230.065C235.94 227.071 237.008 223.55 237.008 219.949C237.003 215.122 235.083 210.493 231.669 207.08C228.256 203.666 223.627 201.746 218.8 201.741Z" fill="#C38B25"/>
</g>
</g>
<defs>
<filter id="filter0_d_2_415" x="173.088" y="77.5225" width="155.581" height="327.296" filterUnits="userSpaceOnUse" color-interpolation-filters="sRGB">
<feFlood flood-opacity="0" result="BackgroundImageFix"/>
<feColorMatrix in="SourceAlpha" type="matrix" values="0 0 0 0 0 0 0 0 0 0 0 0 0 0 0 0 0 0 127 0" result="hardAlpha"/>
<feOffset dx="3"/>
<feGaussianBlur stdDeviation="2.5"/>
<feComposite in2="hardAlpha" operator="out"/>
<feColorMatrix type="matrix" values="0 0 0 0 0 0 0 0 0 0 0 0 0 0 0 0 0 0 0.25 0"/>
<feBlend mode="normal" in2="BackgroundImageFix" result="effect1_dropShadow_2_415"/>
<feBlend mode="normal" in="SourceGraphic" in2="effect1_dropShadow_2_415" result="shape"/>
</filter>
<clipPath id="clip0_2_415">
<rect width="516.103" height="400" fill="white"/>
</clipPath>
</defs>
</svg>
