<svg width="20" height="18" viewBox="0 0 20 18" fill="none" xmlns="http://www.w3.org/2000/svg">
<path d="M19 0.500004H0V2.5H2.3L5.821 12.183C5.96168 12.5685 6.21731 12.9015 6.55335 13.1371C6.88939 13.3726 7.28964 13.4993 7.7 13.5H16V11.5H7.7L6.972 9.5H16C16.4 9.5 16.762 9.262 16.919 8.894L19.919 1.894C19.9847 1.74194 20.0116 1.5759 19.9971 1.41087C19.9827 1.24584 19.9273 1.087 19.8362 0.948692C19.745 0.81038 19.6208 0.696942 19.4748 0.61861C19.3288 0.540279 19.1657 0.499518 19 0.500004Z" fill="#C38B25"/>
<path d="M8.5 17.5C9.32843 17.5 10 16.8284 10 16C10 15.1716 9.32843 14.5 8.5 14.5C7.67157 14.5 7 15.1716 7 16C7 16.8284 7.67157 17.5 8.5 17.5Z" fill="#C38B25"/>
<path d="M14.5 17.5C15.3284 17.5 16 16.8284 16 16C16 15.1716 15.3284 14.5 14.5 14.5C13.6716 14.5 13 15.1716 13 16C13 16.8284 13.6716 17.5 14.5 17.5Z" fill="#C38B25"/>
</svg>
