<svg width="15" height="15" viewBox="0 0 15 15" fill="none" xmlns="http://www.w3.org/2000/svg">
<path d="M14.0638 0.937445C13.546 0.41969 12.7066 0.419641 12.1888 0.937334L7.5 5.625L2.8125 0.9375C2.29473 0.419733 1.45527 0.419733 0.937499 0.9375C0.419733 1.45527 0.419733 2.29473 0.937499 2.8125L5.625 7.5L0.937499 12.1875C0.419732 12.7053 0.419733 13.5447 0.9375 14.0625C1.45527 14.5803 2.29473 14.5803 2.8125 14.0625L7.5 9.375L12.1888 14.0627C12.7066 14.5804 13.546 14.5803 14.0638 14.0626C14.5816 13.5448 14.5816 12.7052 14.0638 12.1874L9.37633 7.5L14.0638 2.81256C14.5816 2.29476 14.5816 1.45524 14.0638 0.937445Z" fill="white"/>
</svg>
