<svg width="24" height="24" viewBox="0 0 24 24" fill="none" xmlns="http://www.w3.org/2000/svg">
<g clip-path="url(#clip0_2_2472)">
<path d="M16.7625 16.1675L18.0958 14.6675C18.3042 14.4332 18.6667 14.5972 18.6667 14.9347V21.7503C18.6667 22.9925 17.7708 24.0003 16.6667 24.0003H2C0.895833 24.0003 0 22.9925 0 21.7503V5.25034C0 4.00815 0.895833 3.00034 2 3.00034H13.3958C13.6917 3.00034 13.8417 3.40347 13.6333 3.64253L12.3 5.14253C12.2375 5.21284 12.1542 5.25034 12.0625 5.25034H2V21.7503H16.6667V16.43C16.6667 16.3316 16.7 16.2378 16.7625 16.1675ZM23.2875 6.70815L12.3458 19.0175L8.57917 19.4863C7.4875 19.6222 6.55833 18.5863 6.67917 17.3488L7.09583 13.1113L18.0375 0.801904C18.9917 -0.271533 20.5333 -0.271533 21.4833 0.801904L23.2833 2.8269C24.2375 3.90034 24.2375 5.6394 23.2875 6.70815ZM19.1708 8.15659L16.75 5.43315L9.00833 14.1472L8.70417 17.2082L11.425 16.866L19.1708 8.15659ZM21.8708 4.42065L20.0708 2.39565C19.9 2.20347 19.6208 2.20347 19.4542 2.39565L18.1667 3.84409L20.5875 6.56753L21.875 5.11909C22.0417 4.92222 22.0417 4.61284 21.8708 4.42065Z" fill="#fff"/>
</g>
<defs>
<clipPath id="clip0_2_2472">
<rect width="24" height="24" fill="#000"/>
</clipPath>
</defs>
</svg>
