<svg width="24" height="24" viewBox="0 0 24 24" fill="none" xmlns="http://www.w3.org/2000/svg">
<path d="M23.1213 4.59098L17.8787 0.659016C17.3161 0.237058 16.553 3.12036e-06 15.7574 0H3C1.34312 0 0 1.00734 0 2.25V21.75C0 22.9927 1.34312 24 3 24H21C22.6569 24 24 22.9927 24 21.75V6.18197C24 5.58523 23.6839 5.01294 23.1213 4.59098ZM20.7574 6H16V2.43197L20.7574 6ZM3 21.75V2.25H13V7.125C13 7.74633 13.6716 8.25 14.5 8.25H21V21.75H3ZM17.2929 11.8452L14 14.3144V12.5625C14 12.0447 13.4404 11.625 12.75 11.625H6.25C5.55963 11.625 5 12.0447 5 12.5625V17.4375C5 17.9553 5.55963 18.375 6.25 18.375H12.75C13.4404 18.375 14 17.9553 14 17.4375V15.6856L17.2929 18.1547C17.919 18.6243 19 18.2944 19 17.6243V12.3755C19 11.7047 17.9182 11.3762 17.2929 11.8452Z" fill="#B1B1B1"/>
</svg>
