<svg width="14" height="17" viewBox="0 0 14 17" fill="none" xmlns="http://www.w3.org/2000/svg">
<path d="M13.5464 5.678C13.5371 5.6508 13.5294 5.62445 13.5184 5.5981C13.4781 5.50585 13.4217 5.42151 13.3518 5.34905L8.2518 0.24905C8.17934 0.179165 8.095 0.12275 8.00275 0.0824499C7.97725 0.0705499 7.95005 0.0637499 7.92285 0.0543999C7.85173 0.0301972 7.77769 0.015618 7.7027 0.01105C7.684 0.00935001 7.66785 0 7.65 0H1.7C0.76245 0 0 0.76245 0 1.7V15.3C0 16.2376 0.76245 17 1.7 17H11.9C12.8375 17 13.6 16.2376 13.6 15.3V5.95C13.6 5.93215 13.5906 5.916 13.5889 5.8973C13.5846 5.82264 13.5703 5.74889 13.5464 5.678ZM10.6981 5.1H8.5V2.9019L10.6981 5.1ZM1.7 15.3V1.7H6.8V5.95C6.8 6.17543 6.88955 6.39163 7.04896 6.55104C7.20836 6.71045 7.42457 6.8 7.65 6.8H11.9L11.9017 15.3H1.7Z" fill="white"/>
</svg>
