<svg width="43" height="44" viewBox="0 0 43 44" fill="none" xmlns="http://www.w3.org/2000/svg">
<rect x="0.98738" y="22.2119" width="29" height="29" rx="4.5" transform="rotate(-45 0.98738 22.2119)" stroke="#C38B25"/>
<path d="M28.8253 25.076V22.655H31.2473V20.84H28.8253V18.419H27.0103V20.84H24.5893V22.655H27.0103V25.076H28.8253ZM17.3323 18.353C18.4653 18.353 19.2283 18.837 19.6623 19.249L21.3843 17.579C20.3363 16.599 18.9693 15.999 17.3323 15.999C13.9943 15.998 11.2803 18.71 11.2803 22.051C11.2803 25.392 13.9943 28.104 17.3323 28.104C20.8253 28.104 23.1443 25.647 23.1443 22.191C23.1443 21.688 23.0803 21.331 22.9913 20.951H17.3293V23.207H20.6613C20.5033 24.158 19.6503 25.763 17.3323 25.763C15.3293 25.763 13.6953 24.098 13.6953 22.059C13.6953 20.017 15.3293 18.353 17.3323 18.353Z" fill="#C38B25"/>
</svg>
