<svg width="44" height="44" viewBox="0 0 44 44" fill="none" xmlns="http://www.w3.org/2000/svg">
<rect x="1.56062" y="22.2119" width="29" height="29" rx="4.5" transform="rotate(-45 1.56062 22.2119)" stroke="#C38B25"/>
<path d="M21.8435 11.999C16.3255 11.999 11.8535 16.472 11.8535 21.989C11.8535 26.221 14.4865 29.839 18.2035 31.295C18.1155 30.505 18.0375 29.289 18.2375 28.427C18.4195 27.647 19.4095 23.461 19.4095 23.461C19.4095 23.461 19.1105 22.862 19.1105 21.977C19.1105 20.589 19.9155 19.552 20.9185 19.552C21.7715 19.552 22.1825 20.192 22.1825 20.959C22.1825 21.817 21.6365 23.098 21.3555 24.286C21.1205 25.28 21.8545 26.091 22.8345 26.091C24.6095 26.091 25.9755 24.219 25.9755 21.516C25.9755 19.124 24.2565 17.452 21.8025 17.452C18.9595 17.452 17.2905 19.584 17.2905 21.787C17.2905 22.645 17.6215 23.566 18.0345 24.067C18.0696 24.1048 18.0944 24.1509 18.1065 24.201C18.1186 24.2511 18.1175 24.3034 18.1035 24.353C18.0275 24.668 17.8585 25.347 17.8265 25.486C17.7825 25.669 17.6815 25.708 17.4915 25.62C16.2445 25.039 15.4645 23.215 15.4645 21.749C15.4645 18.598 17.7535 15.704 22.0655 15.704C25.5315 15.704 28.2245 18.173 28.2245 21.474C28.2245 24.918 26.0535 27.687 23.0405 27.687C22.0275 27.687 21.0765 27.162 20.7505 26.541L20.1275 28.915C19.9025 29.783 19.2935 30.871 18.8865 31.535C19.8446 31.8308 20.8418 31.9808 21.8445 31.98C27.3615 31.98 31.8345 27.507 31.8345 21.99C31.8345 16.473 27.3605 11.999 21.8435 11.999Z" fill="#C38B25"/>
</svg>
