<svg width="21" height="13" viewBox="0 0 21 13" fill="none" xmlns="http://www.w3.org/2000/svg">
<path d="M10.5996 0C5.62961 0 0.599609 1.546 0.599609 4.5V8.5C0.599609 11.454 5.62961 13 10.5996 13C15.5696 13 20.5996 11.454 20.5996 8.5V4.5C20.5996 1.546 15.5696 0 10.5996 0ZM2.59961 8.5V7.303C3.23295 7.66168 3.9036 7.95006 4.59961 8.163V10.044C3.28761 9.53 2.59961 8.918 2.59961 8.5ZM14.5996 8.648V10.619C13.7326 10.798 12.7326 10.929 11.5996 10.977V8.977C12.606 8.93693 13.6084 8.827 14.5996 8.648ZM9.59961 10.978C8.59162 10.9394 7.58838 10.8197 6.59961 10.62V8.649C7.55861 8.823 8.57161 8.936 9.59961 8.979V10.978ZM16.5996 10.044V8.163C17.2958 7.95049 17.9665 7.66209 18.5996 7.303V8.5C18.5996 8.918 17.9126 9.53 16.5996 10.044ZM10.5996 7C5.42261 7 2.59961 5.349 2.59961 4.5C2.59961 3.651 5.42261 2 10.5996 2C15.7766 2 18.5996 3.651 18.5996 4.5C18.5996 5.349 15.7766 7 10.5996 7Z" fill="white"/>
</svg>
