<svg width="35" height="25" viewBox="0 0 35 25" fill="none" xmlns="http://www.w3.org/2000/svg">
<path d="M34.9196 22.3719V0H0V22.3719H14.2527V23.8118H6.8021V25H27.6637V23.8118H20.3745V22.3719H34.9196ZM2.55412 19.0782V2.55412H32.3647V19.0759H2.55412V19.0782Z" fill="#C28A24"/>
<path d="M14.3642 13.6113H7.43257L5.37891 13.7157V15.1283H18.9128V13.6113H14.7707H14.3642ZM16.5852 14.5441H12.3083V14.2606H16.5852V14.5441Z" fill="#C28A24"/>
<path d="M8.50165 4.83418H20.6348V5.18065H21.7046V3.76367H7.43262V13.1747H18.9121V12.1064H8.50165V4.83418Z" fill="#C28A24"/>
<path d="M20.5867 6.82764H25.8704V8.75841H26.9446V5.75195H19.5117V16.899H23.7412V15.9825C23.7412 16.1809 23.582 16.3408 23.3836 16.3408C23.1852 16.3408 23.026 16.1802 23.026 15.9825C23.026 15.7848 23.1867 15.6257 23.3836 15.6257C23.5805 15.6257 23.7412 15.7848 23.7412 15.9825V15.0512H20.5859V6.82764H20.5867Z" fill="#C28A24"/>
<path d="M24.3438 18.0008H29.5416V9.25684H24.3438V18.0008ZM27.0082 17.6247C26.8416 17.6247 26.7083 17.4885 26.7083 17.3241C26.7083 17.1598 26.8423 17.0251 27.0082 17.0251C27.174 17.0251 27.3073 17.1598 27.3073 17.3241C27.3073 17.4885 27.174 17.6247 27.0082 17.6247ZM27.0578 9.61885C27.1274 9.61885 27.1829 9.67512 27.1829 9.74471C27.1829 9.81356 27.1274 9.86983 27.0578 9.86983C26.9882 9.86983 26.9319 9.81356 26.9319 9.74471C26.9319 9.67586 26.9882 9.61885 27.0578 9.61885ZM26.3108 10.0386H27.807V10.1593H26.3108V10.0386ZM25.1774 10.5894L28.708 10.5879V16.5949C27.3583 16.6009 25.8481 16.6068 25.1774 16.6009V10.5894Z" fill="#C28A24"/>
</svg>
