<svg width="31" height="25" viewBox="0 0 31 25" fill="none" xmlns="http://www.w3.org/2000/svg">
<path d="M0 0H30.1077V7.93091C30.1077 10.6798 27.8789 12.9024 25.1362 12.9024V4.92818H4.97152V12.9024C2.22883 12.9024 0 10.6736 0 7.93091V0ZM13.6763 19.075C13.6763 19.8427 14.3016 20.4681 15.0693 20.4681C15.837 20.4681 16.4624 19.8427 16.4624 19.075C16.4624 18.3073 15.837 17.682 15.0693 17.682C14.3016 17.682 13.6763 18.3073 13.6763 19.075ZM6.85983 6.75458V22.7093C6.85983 23.9723 7.88757 25 9.15057 25H20.9448C22.2078 25 23.2355 23.9723 23.2355 22.7093V6.75458H21.2791V20.3566C21.1429 20.3318 21.0005 20.3195 20.8519 20.3195C19.5703 20.3195 18.5302 21.3596 18.5302 22.6412C18.5302 22.7774 18.5426 22.9136 18.5674 23.0498H11.528C11.5527 22.9198 11.5651 22.7836 11.5651 22.6412C11.5651 21.3596 10.525 20.3195 9.24344 20.3195C9.09485 20.3195 8.95245 20.3318 8.81625 20.3566V6.75458H6.85983ZM15.0508 16.7843C12.2833 16.7843 10.0359 14.5369 10.0359 11.7694C10.0359 9.00198 12.2833 6.75458 15.0508 6.75458C17.8182 6.75458 20.0656 9.00198 20.0656 11.7694C20.0656 14.5369 17.8182 16.7843 15.0508 16.7843ZM17.6139 10.6612L16.6419 9.68301L14.4007 11.9118L13.4658 10.9708L12.4876 11.9428L13.4225 12.8839L14.3945 13.8621L15.3727 12.89L17.6139 10.6612Z" fill="#C28A24"/>
</svg>
