<svg width="33" height="25" viewBox="0 0 33 25" fill="none" xmlns="http://www.w3.org/2000/svg">
<path d="M25.2876 0C23.2213 0 21.3929 1.47732 20.1032 3.8668L5.01478 7.10688H2.83857C1.27042 7.10688 0 8.3773 0 9.94546V16.7691C0 18.337 1.27042 19.6078 2.83857 19.6078H5.01478L6.15025 19.5965L7.07781 19.7518L7.02842 19.9625C6.84683 20.7409 6.98488 21.5426 7.41677 22.2207C7.86579 22.9253 8.57343 23.4098 9.40965 23.5846L14.4738 24.6473C14.6889 24.6928 14.9051 24.7151 15.1197 24.7151C15.7209 24.7151 16.308 24.5392 16.8201 24.2015C17.5153 23.7425 17.9877 23.0394 18.1508 22.2202L18.2693 21.6263L20.6357 22.0227C21.8758 23.8822 23.4927 25 25.2883 25C29.2813 25 32.4087 19.5089 32.4087 12.4995C32.4086 5.48991 29.2807 0 25.2876 0ZM16.4798 21.8857C16.4056 22.2554 16.1932 22.5737 15.8805 22.78C15.5676 22.9864 15.1916 23.0574 14.8221 22.9809L9.75808 21.9173C9.37436 21.837 9.05283 21.619 8.85186 21.3052C8.66911 21.0171 8.6101 20.6777 8.68661 20.3488L8.76066 20.0335L16.5877 21.3446L16.4798 21.8857ZM25.2876 22.1613C23.7939 22.1613 22.1725 19.901 21.4262 16.4922C21.5968 16.5413 21.7722 16.5693 21.9527 16.5693C23.4676 16.5693 24.6961 14.7476 24.6961 12.5009C24.6961 10.2538 23.4676 8.43183 21.9527 8.43183C21.7731 8.43183 21.5963 8.45946 21.4262 8.50834C22.1713 5.09874 23.7939 2.83908 25.2876 2.83908C27.3085 2.83908 29.5696 6.97042 29.5696 12.5009C29.5696 18.0297 27.3085 22.1613 25.2876 22.1613Z" fill="#C28A24"/>
</svg>
