<svg width="26" height="25" viewBox="0 0 26 25" fill="none" xmlns="http://www.w3.org/2000/svg">
<path d="M12.0171 17.1288L11.7973 22.5228L11.7681 22.8457L5.61163 22.4207C5.22619 22.3801 4.8866 22.2113 4.62929 21.9592C4.34074 21.6957 4.1074 21.3759 3.94802 21.0165L3.94072 20.9988C3.84176 20.7644 3.76676 20.4925 3.7303 20.2081L3.72821 20.1925C3.71884 20.104 3.71363 20.0008 3.71363 19.8967C3.71363 19.6644 3.74072 19.4373 3.79072 19.2196L3.78655 19.2393C3.86017 18.8775 3.91746 18.6088 3.95843 18.4331C4.06469 18.0497 4.17198 17.7382 4.29595 17.4341L4.27407 17.4955C4.44005 17.0462 4.53276 16.7882 4.55221 16.7215C5.31543 16.8375 7.80304 16.9736 12.015 17.1299L12.0171 17.1288ZM6.34291 8.53994L8.98156 14.0954L6.8273 12.7474C6.26895 13.3787 5.73247 14.0693 5.23974 14.7933L5.1939 14.8652C4.82722 15.3892 4.47304 15.9902 4.16677 16.6174L4.13136 16.6976C3.89662 17.2136 3.70391 17.6754 3.55321 18.083C3.44487 18.3445 3.35112 18.6539 3.28757 18.9747L3.28236 19.007L3.22403 19.3143L0.439536 14.0818C0.28328 13.8506 0.186401 13.5683 0.175984 13.2631V13.2599C0.172859 13.2193 0.170775 13.1714 0.170775 13.1235C0.170775 12.9255 0.20411 12.7359 0.265571 12.5599L0.262446 12.5724L0.379117 12.3088C0.722882 11.6935 1.27985 10.7765 2.05002 9.55769L0.000976562 8.29201L6.34291 8.53994ZM24.3853 16.1184L21.6342 21.3801C21.5206 21.6592 21.3362 21.8905 21.1039 22.0593L21.0998 22.0624C20.9206 22.2041 20.706 22.3082 20.4727 22.3603L20.4622 22.3624L20.1987 22.4207C19.5049 22.4888 18.4351 22.5461 16.9892 22.5926L17.1059 25L13.7349 19.6206L16.8298 14.3141L16.9319 16.8497C17.6725 16.9361 18.5299 16.9861 19.3987 16.9861C19.9904 16.9861 20.5768 16.9632 21.156 16.9184L21.0789 16.9236C21.9904 16.8632 22.8394 16.6903 23.6436 16.4184L23.5728 16.4392L24.3853 16.1184ZM12.8828 2.57407C12.4244 3.18937 11.1296 5.3148 8.99823 8.95037L4.35532 6.20963L4.07719 6.03775L7.37524 0.819826C7.58358 0.509396 7.88568 0.277095 8.2409 0.161465L8.25236 0.15834C8.52425 0.057294 8.8378 0 9.1649 0C9.25657 0 9.3472 0.00416684 9.43679 0.0135422L9.42533 0.0125005C9.6868 0.0354181 9.92847 0.096879 10.1524 0.190633L10.1368 0.184383C10.3733 0.28022 10.5733 0.384391 10.7629 0.503146L10.7462 0.493771C10.9733 0.64586 11.1723 0.805242 11.3556 0.979207L11.3535 0.977124C11.5883 1.19241 11.7643 1.36082 11.8817 1.48235C11.999 1.60389 12.1751 1.7966 12.4098 2.0605C12.6466 2.3244 12.8043 2.49559 12.8828 2.57407ZM22.4832 7.07321L25.5906 12.3943C25.7177 12.6422 25.7927 12.9349 25.7927 13.2453C25.7927 13.3391 25.7854 13.4318 25.7729 13.5224L25.7739 13.512C25.7135 13.9204 25.5718 14.2871 25.3645 14.6079L25.3708 14.5975C25.2322 14.8048 25.0729 14.984 24.8906 15.1371L24.8864 15.1402C24.7218 15.2829 24.5395 15.4184 24.3478 15.5392L24.3291 15.5496C24.127 15.6694 23.8916 15.7777 23.6457 15.8632L23.6176 15.8715C23.3197 15.9791 23.0905 16.0573 22.9301 16.1059C22.7696 16.1545 22.5179 16.2229 22.1748 16.3111L21.5008 16.483C21.1682 15.7795 19.8733 13.6492 17.6163 10.0921L22.204 7.23363L22.4832 7.07321ZM20.3872 3.76057L22.4686 2.54386L19.2445 8.01179L13.1015 7.71907L15.3152 6.4586C14.9453 5.48669 14.5755 4.68561 14.1599 3.9137L14.2162 4.02829C13.8536 3.32931 13.4859 2.73761 13.0796 2.17509L13.1088 2.2178C12.772 1.76292 12.4567 1.37193 12.1629 1.04484C11.9504 0.796908 11.7254 0.573982 11.4837 0.369807L11.4754 0.362515L11.2264 0.171882L17.159 0.186466C17.2079 0.181258 17.2642 0.178132 17.3225 0.178132C17.5725 0.178132 17.8101 0.238552 18.0184 0.344806L18.0101 0.340639C18.2361 0.442727 18.4267 0.584399 18.583 0.758365L18.584 0.760448L18.7455 0.980249C19.1268 1.57333 19.674 2.5001 20.3872 3.76057Z" fill="#C28A24"/>
</svg>
