<svg width="29" height="25" viewBox="0 0 29 25" fill="none" xmlns="http://www.w3.org/2000/svg">
<path d="M15.7514 11.56C16.0135 11.0084 16.3342 10.3092 16.5874 9.677C16.8167 9.10697 16.5551 8.32603 16.0435 7.98545C12.7512 5.78958 1.58367 -0.535937 0.320104 13.6796C0.265558 14.2919 0.156977 14.2992 0.0962907 13.6874C-0.117391 11.5472 -0.216966 6.81767 2.60623 4.27109C3.06266 3.85979 3.86694 3.26807 4.38129 2.93189C6.2115 1.73351 10.8047 -0.328291 17.4108 3.19736C17.9535 3.48677 18.4829 3.25856 18.6109 2.65742L19.0707 0.493791C19.1982 -0.107343 19.5594 -0.16803 19.8778 0.357988L25.2933 9.31902C25.6111 9.84504 25.3818 10.3766 24.7806 10.5069L16.3505 12.3248C15.7486 12.4546 15.4875 12.115 15.7514 11.56ZM24.1781 22.6741C22.3479 23.8709 17.7552 25.9287 11.1486 22.4058C10.6059 22.1164 10.0181 22.3284 9.81882 22.9101L9.25944 24.5432C9.06019 25.1249 8.66659 25.155 8.38056 24.6106L4.05616 16.3781C3.77002 15.8338 4.01502 15.2471 4.60336 15.0678L11.7498 12.8847C12.3377 12.7055 12.6811 13.0399 12.5174 13.6334C12.3337 14.2975 12.096 15.163 11.8951 15.9027C11.7342 16.4961 12.0114 17.2693 12.5302 17.6004C15.8616 19.7256 27.1382 25.8201 28.3661 11.8027C28.4195 11.1904 28.5192 11.1854 28.5715 11.7976C28.7563 13.9624 28.7963 18.7727 25.9536 21.3354C25.4968 21.7462 24.693 22.338 24.1781 22.6741Z" fill="#C28A24"/>
</svg>
