<svg width="25" height="25" viewBox="0 0 25 25" fill="none" xmlns="http://www.w3.org/2000/svg">
<path d="M0.25401 9.98059C0.212418 10.184 0.175675 10.3893 0.144088 10.5961C0.112544 10.803 0.0859371 11.0116 0.0645729 11.2218C0.0218884 11.6419 0 12.0682 0 12.4998C0 12.9313 0.0218884 13.3576 0.0645729 13.7779C0.0859371 13.988 0.112413 14.1966 0.144088 14.4035C0.175631 14.6104 0.212418 14.8157 0.25401 15.019C0.295603 15.2224 0.342263 15.4241 0.393554 15.6237C0.496399 16.023 0.618293 16.4148 0.758536 16.7977C0.828613 16.9891 0.903322 17.1784 0.982356 17.3653C1.06135 17.5521 1.14492 17.7368 1.23261 17.919C1.27647 18.01 1.32152 18.1006 1.36752 18.1904C1.45949 18.37 1.55574 18.5472 1.65613 18.7217C1.9572 19.2452 2.29505 19.7448 2.66615 20.2171C2.85174 20.4532 3.04555 20.6825 3.2473 20.9046C3.38182 21.0526 3.51975 21.1973 3.66122 21.3387C3.80255 21.4801 3.94734 21.6181 4.09531 21.7526C4.76123 22.3579 5.49276 22.8922 6.27804 23.3438C6.45253 23.444 6.62965 23.5405 6.80934 23.6324C7.16869 23.8165 7.53808 23.9836 7.91656 24.1329C8.10574 24.2076 8.29732 24.2777 8.49091 24.3432C9.74934 24.7691 11.0977 25 12.5 25C13.456 25 14.3867 24.8922 15.2812 24.6891C15.6988 24.5942 16.1085 24.4788 16.5091 24.3433C16.7027 24.2779 16.8941 24.2076 17.0834 24.1331C17.4619 23.9839 17.8313 23.8167 18.1906 23.6325C18.3703 23.5406 18.5475 23.4443 18.7219 23.344C19.5072 22.8925 20.2387 22.358 20.9046 21.7528C21.0527 21.6182 21.1974 21.4802 21.3387 21.3388C21.4801 21.1975 21.6182 21.0527 21.7527 20.9047C21.9544 20.6828 22.1483 20.4535 22.3338 20.2173C22.6274 19.8437 22.8995 19.4528 23.1497 19.0468C23.2158 18.9394 23.2809 18.8314 23.3439 18.7218C23.4443 18.5474 23.5406 18.3702 23.6325 18.1905C23.6785 18.1007 23.7234 18.0102 23.7673 17.9192C23.8552 17.7371 23.9386 17.5524 24.0176 17.3654C24.0967 17.1785 24.1714 16.9892 24.2415 16.7977C24.3817 16.4149 24.5036 16.0232 24.6064 15.6239C24.6578 15.4241 24.7045 15.2225 24.746 15.0192C24.7876 14.8157 24.8244 14.6105 24.856 14.4036C24.8875 14.1967 24.9141 13.9881 24.9355 13.778C24.9782 13.3578 25.0001 12.9315 25.0001 12.4999C25.0001 12.0684 24.9782 11.642 24.9355 11.2219C24.9141 11.0117 24.8876 10.8032 24.856 10.5962C24.8244 10.3894 24.7876 10.184 24.746 9.98072C24.7044 9.77739 24.6578 9.57563 24.6064 9.37605C24.5036 8.97673 24.3817 8.58501 24.2415 8.20212C24.2065 8.1064 24.1702 8.0112 24.1329 7.91652C24.021 7.63272 23.899 7.35398 23.7673 7.0807C23.7234 6.98965 23.6784 6.89917 23.6324 6.8093C23.5404 6.62965 23.4441 6.45249 23.3437 6.27804C23.0427 5.75451 22.7049 5.25492 22.3338 4.78259C22.1482 4.5465 21.9544 4.31721 21.7526 4.09518C21.6181 3.94721 21.4801 3.80242 21.3387 3.66109C21.1974 3.51962 21.0526 3.38165 20.9046 3.24717C20.618 2.98661 20.3189 2.73954 20.0089 2.50629C19.5987 2.19762 19.169 1.91325 18.7218 1.65605C18.5473 1.55578 18.3702 1.4594 18.1906 1.36743C18.1088 1.32558 18.0265 1.28482 17.9438 1.24484C17.8446 1.19683 17.7447 1.14964 17.6441 1.10421C17.6019 1.0852 17.5593 1.06716 17.5171 1.04859C17.3737 0.985633 17.2295 0.924686 17.0833 0.86706C17.0814 0.86623 17.0792 0.865575 17.0772 0.864657C16.9215 0.803448 16.7638 0.745822 16.6051 0.690599C16.5731 0.679501 16.5412 0.667618 16.509 0.656783C16.1388 0.531525 15.7608 0.423613 15.376 0.333132C15.2558 0.304777 15.135 0.277777 15.0135 0.252918C14.926 0.235005 14.838 0.218403 14.7498 0.202369C14.0923 0.0828351 13.4169 0.0152039 12.7279 0.0028835C12.6518 0.00148544 12.5761 0 12.4997 0C12.3702 0 12.2412 0.00266505 12.1125 0.00655341C10.8492 0.0450438 9.63273 0.27035 8.4906 0.656827C8.29701 0.722361 8.10548 0.792526 7.91626 0.867104C7.85772 0.890216 7.79996 0.914419 7.74181 0.938361C7.61196 0.991837 7.48299 1.04667 7.35542 1.10425C7.17079 1.18783 6.98869 1.27551 6.80904 1.36761C6.62934 1.45958 6.45223 1.55587 6.27773 1.65622C5.57573 2.05996 4.91676 2.52988 4.309 3.05743C4.23696 3.11999 4.16557 3.18308 4.09496 3.2473C3.94695 3.38178 3.80216 3.51988 3.66087 3.66122C3.51958 3.80255 3.38143 3.94729 3.24695 4.09531C3.0452 4.31726 2.85135 4.54654 2.6658 4.78272C2.29466 5.25492 1.9568 5.75468 1.65574 6.27817C1.55534 6.45262 1.4591 6.62978 1.36713 6.80943C1.32112 6.8993 1.27621 6.98978 1.23226 7.08083C1.10058 7.35411 0.978643 7.63285 0.866623 7.91665C0.829312 8.01133 0.793094 8.10648 0.758055 8.20221C0.617812 8.5851 0.495919 8.97678 0.393074 9.37614C0.342219 9.5755 0.295603 9.77725 0.25401 9.98059ZM10.3818 0.858541C10.4062 0.900002 10.4267 0.947842 10.4865 0.966017C10.6035 0.905419 10.7202 0.970036 10.849 0.966017C10.9746 0.961604 11.0868 0.904109 11.2251 0.925779C11.4696 0.964007 11.8112 1.20308 12.0039 1.07336C12.0524 1.04059 12.0409 0.98406 12.0846 0.899041C12.1195 0.831104 12.1739 0.755871 12.2073 0.672162C12.3047 0.669759 12.4021 0.668404 12.5 0.668404C13.3084 0.668404 14.0981 0.750104 14.8615 0.905288C14.8295 0.989522 14.7244 0.951949 14.6363 0.992711C14.5536 1.03107 14.5227 1.11024 14.4349 1.12679C14.1906 1.1728 13.9882 1.06558 13.7768 1.07332C13.7669 1.16476 13.8813 1.21797 13.938 1.24738C14.1295 1.34777 14.2855 1.33401 14.5556 1.32798C14.694 1.32493 14.8531 1.36931 14.972 1.28761C15.0474 1.23615 15.0434 1.12277 15.1064 1.05982C15.1333 1.03321 15.1727 1.00647 15.2172 0.983755C15.3498 1.01504 15.4815 1.04898 15.6126 1.08468C15.5905 1.17507 15.4442 1.15327 15.4423 1.27438C15.5357 1.33039 15.753 1.24375 15.8369 1.14816C15.8693 1.15777 15.902 1.16742 15.9344 1.17717C16.1243 1.23493 16.3123 1.29723 16.4981 1.36407C16.7631 1.45953 17.0235 1.56421 17.2793 1.67759C17.2302 1.7066 17.1778 1.74378 17.1346 1.74351C17.0236 1.74281 16.9762 1.59458 16.8524 1.64941C16.8416 1.79297 17.0044 1.85112 17.1075 1.91744C17.2191 1.98922 17.3364 2.06074 17.376 2.18561C17.2668 2.41716 17.0925 2.17346 16.9195 2.17237C16.7289 2.17101 16.4508 2.53455 16.2883 2.23934C16.3288 2.08289 16.5013 2.0586 16.5435 1.90416C16.5064 1.91045 16.4706 1.92247 16.435 1.9368C16.3711 1.96205 16.3082 1.99613 16.243 2.03116C16.1575 2.07717 16.0677 2.12287 15.9659 2.14559C15.8723 2.16621 15.7811 2.16123 15.6973 2.18556C15.5367 2.23262 15.4244 2.3511 15.2544 2.4138C15.188 2.43813 15.1085 2.43062 15.0394 2.45377C14.8773 2.5079 14.683 2.60472 14.5158 2.6952C14.3448 2.78756 14.1519 2.88464 14.0458 2.97673C13.9884 3.02619 13.8391 3.20213 13.8443 3.25801C13.8511 3.33783 14.0017 3.3643 14.0054 3.44583C14.002 3.49528 13.9182 3.60197 13.9786 3.67376C14.0336 3.73916 14.1437 3.68621 14.2605 3.70049C14.4657 3.72592 14.6 3.89517 14.7574 3.98203C14.8764 4.04769 15.0531 4.1259 15.1875 4.14289C15.372 4.166 15.5785 4.08915 15.6037 4.23674C15.6281 4.3786 15.43 4.42923 15.4158 4.51827C15.5152 4.6493 15.3483 4.71186 15.3487 4.82672C15.3491 4.91973 15.4633 5.05932 15.5634 5.06775C15.6987 5.07924 15.8969 4.93472 15.9531 4.79972C16.0199 4.6389 15.9915 4.42084 16.1142 4.30371C16.74 4.32097 17.2694 4.01999 17.2291 3.37885C17.2251 3.3155 17.1891 3.23393 17.2024 3.16429C17.222 3.06066 17.4004 2.97368 17.3767 2.84265C17.4442 2.8219 17.4846 2.76737 17.5191 2.70603C17.5705 2.61459 17.6106 2.51018 17.7063 2.4757C17.713 2.47317 17.7185 2.46889 17.726 2.46727C17.7807 2.455 17.838 2.46583 17.8982 2.48361C18.0054 2.51529 18.1217 2.56986 18.2496 2.56116C18.3147 2.55675 18.3992 2.49847 18.4647 2.50768C18.5959 2.52599 18.6749 2.68751 18.7736 2.76239C18.8608 2.82893 18.9528 2.8077 18.975 2.89635C18.9492 3.04515 18.8456 3.05074 18.854 3.18741C18.8542 3.18889 18.8539 3.18981 18.8539 3.19129C18.8638 3.31415 18.9916 3.40734 19.0554 3.41948C19.1533 3.43779 19.2934 3.38527 19.3912 3.33888C19.4967 3.28903 19.593 3.18129 19.6852 3.1064C19.8169 3.20737 19.9464 3.31083 20.0737 3.41695C20.0882 3.47659 20.0984 3.53032 20.1031 3.56667C20.1219 3.71159 20.0835 3.8223 20.0898 3.95573C20.1071 4.18178 20.3924 4.1588 20.5328 4.27724C20.5751 4.31319 20.5918 4.4049 20.627 4.45156C20.6952 4.54234 20.7775 4.54234 20.7881 4.63912C20.8133 4.87067 20.5779 4.8902 20.5999 5.14862C20.5513 5.24876 20.4289 5.24273 20.4387 5.37642C20.4544 5.58805 20.759 5.42588 20.8417 5.59098C20.8865 5.67976 20.8343 5.74577 20.8013 5.87225C20.9055 5.99615 20.9048 6.19389 20.721 6.19415C20.6093 6.19415 20.5785 6.07436 20.4656 6.04657C20.4029 6.03093 20.3174 6.03399 20.2374 6.01983C20.169 6.00769 20.0876 5.98737 20.0227 5.9796C19.8569 5.95994 19.6774 6.00808 19.5794 5.91262C19.7392 5.70073 19.9515 5.49189 20.157 5.3094C20.2181 5.25483 20.3492 5.21757 20.3181 5.10834C20.2038 5.00807 20.0634 5.1145 19.9555 5.17532C19.8423 5.23897 19.7072 5.33068 19.5794 5.34964C19.3573 5.38254 19.0627 5.28467 18.8812 5.40311C18.8561 5.5043 19.0878 5.46502 19.0555 5.61772C18.9667 5.63226 18.8825 5.63939 18.8141 5.57735C18.7516 5.52121 18.7874 5.43684 18.747 5.40303C18.6782 5.34606 18.4193 5.33055 18.3037 5.34955C18.1626 5.37253 18.0378 5.4569 18.0215 5.57735C18.191 5.6566 18.4705 5.49578 18.532 5.69819C18.439 5.86504 18.2203 5.95688 18.2497 6.18057C18.2612 6.26694 18.364 6.38232 18.4379 6.39517C18.5123 6.40797 18.554 6.33444 18.6258 6.3413C18.7017 6.34838 18.6845 6.43501 18.7736 6.42191C18.9029 6.36682 18.9744 6.18568 19.1225 6.19411C19.3003 6.4095 18.9621 6.51444 18.7736 6.58277C18.5587 6.66058 18.2792 6.70191 18.1154 6.77072C18.0296 6.80655 17.7047 7.12006 17.6588 6.87768C17.626 6.70292 17.8196 6.75347 17.8603 6.60964C17.6524 6.56927 17.4587 6.69894 17.2696 6.77085C16.9996 6.87274 16.542 6.93731 16.4769 7.23999C16.4641 7.30054 16.5033 7.41392 16.4637 7.45429C16.4314 7.48675 16.2388 7.49265 16.1547 7.52126C16.0251 7.56565 15.9122 7.66046 15.8321 7.68208C15.7717 7.69869 15.6825 7.69397 15.6442 7.70926C15.5375 7.75055 15.4981 7.89468 15.3757 7.99053C15.3255 8.02968 15.2142 8.05816 15.1742 8.09775C15.1047 8.16686 15.0955 8.33987 14.9728 8.36578C14.8948 8.3726 14.8313 8.30724 14.7578 8.35228C14.749 8.52328 14.8183 8.75588 14.7445 8.92876C14.5854 9.05817 14.4109 9.14974 14.2074 9.2639C14.0948 9.3273 13.994 9.34346 13.8581 9.41149C13.7617 9.4595 13.6735 9.57392 13.5626 9.63928C13.3062 9.78992 12.9966 9.96826 12.9986 10.3498C12.999 10.4325 13.0416 10.5215 13.0522 10.618C13.0586 10.6749 13.0454 10.7303 13.0522 10.7923C13.0681 10.9324 13.1698 11.1109 13.0522 11.2077C12.8714 11.1337 12.6415 11.1085 12.515 10.9799C12.4804 10.8476 12.585 10.7385 12.569 10.618C12.5561 10.5212 12.4197 10.3488 12.3403 10.3363C12.2586 10.3235 12.1833 10.4101 12.0989 10.4033C11.9985 10.3954 11.9052 10.2575 11.7763 10.2425C11.5874 10.2204 11.4484 10.2855 11.2391 10.2561C11.0366 10.3641 10.9774 10.5564 10.7291 10.5374C10.6417 10.531 10.5616 10.4643 10.4606 10.4436C10.3511 10.421 10.1849 10.3824 10.0708 10.3902C9.84222 10.4055 9.67646 10.5696 9.48008 10.6715C9.30681 10.7616 9.06149 10.8736 9.01002 11.0604C8.9818 11.1609 9.00561 11.3025 8.96965 11.3955C8.94589 11.4568 8.89398 11.5113 8.86218 11.5694C8.71162 11.844 8.58676 12.207 8.70105 12.6019C8.71805 12.6605 8.86764 12.991 8.92929 13.0577C8.99853 13.1319 9.2023 13.2432 9.3186 13.2453C9.41699 13.2472 9.53224 13.1953 9.62757 13.1783C9.73811 13.1587 9.87652 13.1569 9.97691 13.1248C10.2673 13.032 10.2099 12.64 10.5006 12.5079C10.6274 12.4507 10.7742 12.4392 10.9974 12.4277C11.0682 12.4872 11.1015 12.5916 11.0916 12.6823C11.0841 12.7507 11.019 12.8127 10.9841 12.9103C10.9536 12.9958 10.9472 13.096 10.917 13.1651C10.877 13.2554 10.7879 13.3215 10.7559 13.4064C10.7349 13.4617 10.7464 13.5304 10.7292 13.5804C10.6983 13.6687 10.58 13.731 10.6349 13.8218C10.9225 13.936 11.2705 13.7893 11.5214 13.8354C11.6273 13.8546 11.8456 13.9808 11.8436 14.1438C11.8423 14.2657 11.7494 14.3455 11.7362 14.479C11.7198 14.6468 11.6496 14.8524 11.6422 14.9883C11.6303 15.2107 11.9691 15.5945 12.2062 15.5915C12.4615 15.5882 12.6105 15.338 12.9181 15.471C13.0202 15.515 13.128 15.6802 13.2407 15.672C13.3337 15.6654 13.474 15.5028 13.5362 15.3904C13.6118 15.2533 13.6172 15.1379 13.7508 15.0688C13.895 14.9943 14.0098 15.0301 14.1942 14.9614C14.2766 14.931 14.3482 14.8785 14.4224 14.8273C14.4875 14.7827 14.5561 14.6656 14.6374 14.7468C14.7446 14.8537 14.5061 14.914 14.597 15.0284C14.7833 15.1269 14.8786 14.8452 15.0135 14.8409C15.0565 14.8396 15.2054 14.9245 15.282 14.9749C15.3868 15.0436 15.4224 15.1401 15.537 15.1625C15.6106 15.177 15.7291 15.1344 15.8326 15.149C15.9696 15.1685 16.0513 15.286 16.1551 15.2829C16.2816 15.2796 16.3423 15.1421 16.4506 15.122C16.6877 15.0787 16.7759 15.1485 16.8803 15.2964C16.9973 15.3166 17.0014 15.1614 17.1086 15.2161C17.0498 15.333 17.1286 15.3867 17.1756 15.4842C17.2061 15.5467 17.201 15.5912 17.2295 15.6183C17.2935 15.6793 17.4174 15.6793 17.5113 15.7387C17.6104 15.801 17.6663 15.9168 17.7799 16.0472C17.8969 16.1806 18.0937 16.3187 18.2499 16.3285C18.3975 16.338 18.5176 16.2868 18.6396 16.3018C18.9174 16.3358 19.0901 16.4743 19.2845 16.6236C19.393 16.7069 19.491 16.7649 19.5258 16.8647C19.5504 16.9344 19.5384 17.0279 19.5662 17.106C19.6256 17.273 19.8695 17.3537 19.7813 17.6422C19.8216 17.7269 19.9121 17.7573 20.0094 17.8165C20.0873 17.8639 20.1533 17.9639 20.2376 17.9774C20.2922 17.9862 20.3515 17.9608 20.3988 17.9639C20.5514 17.9744 20.6561 18.0335 20.7885 18.0848C20.8706 18.1163 20.9757 18.1284 21.0303 18.1654C21.0985 18.2114 21.1074 18.3658 21.1914 18.4065C21.2464 18.4332 21.3685 18.3963 21.46 18.4065C21.6042 18.423 21.7998 18.5113 21.93 18.5138C22.0091 18.5155 22.0746 18.4816 22.1448 18.487C22.3079 18.4995 22.436 18.6024 22.5624 18.7174C20.9446 21.3256 18.3417 23.2614 15.2771 24.0011C15.2658 23.8836 15.2333 23.7654 15.2281 23.6483C15.2175 23.3935 15.2563 23.2135 15.2148 22.978C15.1837 22.7999 15.1449 22.527 15.0805 22.415C15.0086 22.2904 14.7261 22.0785 14.5837 21.9993C14.4897 21.9472 14.3771 21.9289 14.2748 21.8787C14.0561 21.7715 13.6321 21.5453 13.5362 21.329C13.5083 21.2667 13.5121 21.1843 13.4822 21.1147C13.424 20.9773 13.3008 20.8582 13.2137 20.7257C13.0478 20.4729 12.9139 20.1557 12.7436 19.8946C12.6575 19.762 12.5829 19.6115 12.4886 19.5059C12.4332 19.4436 12.2562 19.3851 12.2335 19.2914C12.2033 19.1674 12.1114 18.9973 12.126 18.9024C12.1454 18.7744 12.395 18.6708 12.3946 18.5541C12.3942 18.4549 12.2613 18.397 12.2335 18.3128C12.1657 18.1079 12.2732 17.9874 12.3542 17.8168C12.381 17.7607 12.4071 17.6705 12.435 17.6292C12.4842 17.5555 12.5842 17.5347 12.6497 17.4549C12.6863 17.4102 12.7094 17.317 12.7572 17.2538C12.8593 17.1183 13.0241 17.0676 13.0661 16.9454C13.1003 16.8458 13.1204 16.3479 13.0793 16.1813C13.056 16.0848 12.9661 16.0046 12.9318 15.9133C12.871 15.7515 12.8568 15.5746 12.6899 15.5781C12.5869 15.5803 12.5143 15.6939 12.4481 15.7657C12.4322 15.8612 12.4406 15.9643 12.3406 15.9935C12.1879 16.0386 12.1294 15.8331 11.9513 15.7792C11.8804 15.7576 11.7674 15.7589 11.7231 15.739C11.5931 15.6807 11.5512 15.4908 11.4141 15.417C11.2995 15.3559 11.2014 15.3771 11.1319 15.283C11.1031 15.2182 11.1258 15.1016 11.1187 15.0149C10.9715 14.9289 10.8468 14.6083 10.6754 14.5326C10.5617 14.4822 10.3878 14.4868 10.2457 14.4387C10.1788 14.4161 10.1274 14.3868 10.0575 14.3718C9.97136 14.3525 9.88272 14.3514 9.81605 14.318C9.55016 14.1863 9.40668 13.7595 9.07739 13.7686C8.93702 13.7722 8.80171 13.9033 8.67445 13.9025C8.54796 13.9018 8.33594 13.8017 8.17726 13.7282C8.01242 13.6518 7.82993 13.61 7.69397 13.5407C7.58404 13.4845 7.50772 13.3818 7.41173 13.3392C7.3382 13.3067 7.2306 13.301 7.17031 13.2725C7.0845 13.2319 6.99489 13.1452 6.88812 13.071C6.78676 13.001 6.67714 12.894 6.67316 12.8033C6.66875 12.6983 6.7698 12.609 6.78064 12.5081C6.81524 12.1888 6.57958 11.9594 6.4313 11.7708C6.32142 11.6307 6.19254 11.5119 6.08235 11.3821C6.08851 11.296 6.08851 11.2805 6.08235 11.1946C5.99895 11.1137 5.92874 10.9938 5.84053 10.8727C5.76084 10.7635 5.60548 10.6469 5.58543 10.5244C5.5607 10.3737 5.64279 10.2414 5.58543 10.0951C5.48984 9.85249 5.15229 9.9621 5.19572 10.283C5.20791 10.3713 5.33277 10.4902 5.37048 10.5779C5.4091 10.6673 5.40163 10.7787 5.43758 10.8863C5.47219 10.9895 5.57634 11.0785 5.61234 11.1948C5.66931 11.3783 5.66756 11.576 5.71982 11.6908C5.76595 11.7926 5.93586 11.889 5.84057 12.0124C5.71344 12.0387 5.66451 11.9119 5.58547 11.8381C5.54135 11.7971 5.38157 11.7192 5.35728 11.6238C5.33697 11.5449 5.40739 11.4386 5.38402 11.3421C5.33788 11.1529 4.9553 11.1481 4.95394 10.9535C4.95324 10.8313 5.11398 10.8167 5.11542 10.6985C5.11647 10.5693 4.93869 10.4598 4.90047 10.3501C4.86556 10.2496 4.85984 10.0894 4.84686 9.94799C4.83428 9.81522 4.85057 9.66148 4.81973 9.55907C4.7922 9.46697 4.65353 9.34036 4.56463 9.2909C4.44701 9.22554 4.35365 9.25268 4.29607 9.15695C4.24596 9.07337 4.21293 8.89866 4.20209 8.80853C4.18269 8.64732 4.19768 8.47107 4.18859 8.29902C4.17977 8.12671 4.16212 7.96143 4.18859 7.77628C4.25504 7.64661 4.37615 7.58269 4.44391 7.45424C4.49114 7.36494 4.49778 7.2545 4.55113 7.15943C4.64951 6.98432 4.86385 6.82254 5.00794 6.64992C5.1633 6.46398 5.30634 6.28586 5.39726 6.07331C5.42989 5.9979 5.51732 5.83066 5.50473 5.73817C5.48708 5.60928 5.24365 5.50299 5.26287 5.34951C5.27506 5.25444 5.41072 5.25579 5.45113 5.16195C5.47184 5.11354 5.4904 4.97836 5.4915 4.92052C5.49351 4.79124 5.42505 4.65646 5.45113 4.51836C5.47319 4.40057 5.64887 4.35282 5.5586 4.22346C5.46904 4.09536 5.30831 4.29257 5.20926 4.20996C5.11835 4.13376 5.22757 4.04175 5.236 3.90155C5.23932 3.8458 5.20337 3.78202 5.20926 3.74069C5.21743 3.68079 5.33439 3.57987 5.30324 3.53963C5.2547 3.47825 5.20162 3.35434 5.12569 3.25543C6.62362 2.0572 8.41895 1.21483 10.3818 0.858541Z" fill="#C28A24"/>
</svg>
