<svg width="32" height="32" viewBox="0 0 32 32" fill="none" xmlns="http://www.w3.org/2000/svg">
<path d="M15.9997 30.6667L3.33301 23.3334V8.66671L15.9997 1.33337L28.6663 8.66671V23.3334L15.9997 30.6667ZM15.9997 4.41604L5.99967 10.204V21.796L15.9997 27.5854L25.9997 21.796V10.204L15.9997 4.41471V4.41604ZM15.9997 21.3334C14.5857 21.3294 13.2303 20.7679 12.2277 19.7707C10.7027 18.2452 10.2467 15.9514 11.0723 13.9586C11.898 11.9659 13.8426 10.6667 15.9997 10.6667C17.4134 10.6705 18.7683 11.2321 19.7703 12.2294C21.8523 14.312 21.8523 17.688 19.7703 19.7707C18.7682 20.7676 17.4133 21.3291 15.9997 21.3334ZM15.9997 13.3334C14.7274 13.3331 13.6322 14.2315 13.3838 15.4792C13.1353 16.727 13.8029 17.9764 14.9782 18.4635C16.1534 18.9506 17.5091 18.5396 18.2161 17.4819C18.9231 16.4243 18.7845 15.0144 17.885 14.1147C17.3861 13.6131 16.7073 13.3318 15.9997 13.3334Z" fill="white"/>
</svg>
