<svg width="24" height="24" viewBox="0 0 24 24" fill="none" xmlns="http://www.w3.org/2000/svg">
<g clip-path="url(#clip0_2_2386)">
<path d="M14.3571 19.5H15.6429C15.8134 19.5 15.9769 19.4407 16.0974 19.3352C16.218 19.2298 16.2857 19.0867 16.2857 18.9375V8.8125C16.2857 8.66332 16.218 8.52024 16.0974 8.41475C15.9769 8.30926 15.8134 8.25 15.6429 8.25H14.3571C14.1866 8.25 14.0231 8.30926 13.9026 8.41475C13.782 8.52024 13.7143 8.66332 13.7143 8.8125V18.9375C13.7143 19.0867 13.782 19.2298 13.9026 19.3352C14.0231 19.4407 14.1866 19.5 14.3571 19.5ZM23.1429 3.75H18.728L16.9066 1.09219C16.678 0.758914 16.3547 0.483137 15.9681 0.29173C15.5814 0.100323 15.1447 -0.000184847 14.7005 2.55209e-07H9.29946C8.85543 -2.29111e-05 8.41896 0.100562 8.03255 0.291961C7.64614 0.48336 7.32295 0.75905 7.09446 1.09219L5.27196 3.75H0.857143C0.629814 3.75 0.411797 3.82902 0.251051 3.96967C0.0903059 4.11032 0 4.30109 0 4.5L0 5.25C0 5.44891 0.0903059 5.63968 0.251051 5.78033C0.411797 5.92098 0.629814 6 0.857143 6H1.71429V21.75C1.71429 22.3467 1.9852 22.919 2.46744 23.341C2.94968 23.7629 3.60373 24 4.28571 24H19.7143C20.3963 24 21.0503 23.7629 21.5326 23.341C22.0148 22.919 22.2857 22.3467 22.2857 21.75V6H23.1429C23.3702 6 23.5882 5.92098 23.7489 5.78033C23.9097 5.63968 24 5.44891 24 5.25V4.5C24 4.30109 23.9097 4.11032 23.7489 3.96967C23.5882 3.82902 23.3702 3.75 23.1429 3.75ZM9.20571 2.38641C9.23436 2.34468 9.27489 2.31018 9.32335 2.28627C9.3718 2.26236 9.42652 2.24986 9.48214 2.25H14.5179C14.5734 2.24994 14.628 2.26248 14.6763 2.28639C14.7247 2.31029 14.7651 2.34475 14.7937 2.38641L15.7291 3.75H8.27089L9.20571 2.38641ZM19.7143 21.75H4.28571V6H19.7143V21.75ZM8.35714 19.5H9.64286C9.81335 19.5 9.97687 19.4407 10.0974 19.3352C10.218 19.2298 10.2857 19.0867 10.2857 18.9375V8.8125C10.2857 8.66332 10.218 8.52024 10.0974 8.41475C9.97687 8.30926 9.81335 8.25 9.64286 8.25H8.35714C8.18665 8.25 8.02313 8.30926 7.90257 8.41475C7.78202 8.52024 7.71429 8.66332 7.71429 8.8125V18.9375C7.71429 19.0867 7.78202 19.2298 7.90257 19.3352C8.02313 19.4407 8.18665 19.5 8.35714 19.5Z" fill="white"/>
</g>
<defs>
<clipPath id="clip0_2_2386">
<rect width="24" height="24" fill="white"/>
</clipPath>
</defs>
</svg>
