<svg width="44" height="44" viewBox="0 0 44 44" fill="none" xmlns="http://www.w3.org/2000/svg">
<rect x="1.41414" y="22.2119" width="29" height="29" rx="4.5" transform="rotate(-45 1.41414 22.2119)" stroke="#C38B25"/>
<path d="M29.34 17.977C29.353 18.152 29.353 18.326 29.353 18.5C29.353 23.825 25.3 29.961 17.893 29.961C15.611 29.961 13.491 29.3 11.707 28.152C12.031 28.189 12.343 28.202 12.68 28.202C14.493 28.2064 16.2547 27.6002 17.681 26.481C16.8405 26.4658 16.0256 26.1885 15.3503 25.6878C14.6749 25.187 14.1728 24.4879 13.914 23.688C14.163 23.725 14.413 23.75 14.675 23.75C15.036 23.75 15.399 23.7 15.736 23.613C14.8238 23.4288 14.0035 22.9344 13.4146 22.2137C12.8258 21.493 12.5047 20.5907 12.506 19.66V19.61C13.043 19.909 13.666 20.096 14.326 20.121C13.7731 19.7536 13.3198 19.255 13.0064 18.6698C12.693 18.0846 12.5293 17.4309 12.53 16.767C12.53 16.019 12.729 15.333 13.078 14.735C14.0902 15.98 15.3525 16.9986 16.7834 17.7247C18.2142 18.4508 19.7816 18.8682 21.384 18.95C21.322 18.65 21.284 18.339 21.284 18.027C21.2838 17.498 21.3878 16.9741 21.5901 16.4853C21.7924 15.9964 22.0891 15.5523 22.4632 15.1782C22.8373 14.8041 23.2815 14.5074 23.7703 14.3051C24.2591 14.1028 24.783 13.9988 25.312 13.999C26.472 13.999 27.519 14.485 28.255 15.271C29.1568 15.0966 30.0216 14.7674 30.811 14.298C30.5104 15.2288 29.8808 16.0181 29.04 16.518C29.8398 16.4268 30.6215 16.2165 31.359 15.894C30.8082 16.6971 30.1256 17.4014 29.34 17.977Z" fill="#C38B25"/>
</svg>
